<?xml version="1.0" standalone="no"?>
<!DOCTYPE svg PUBLIC "-//W3C//DTD SVG 20010904//EN"
 "http://www.w3.org/TR/2001/REC-SVG-20010904/DTD/svg10.dtd">
<svg version="1.0" xmlns="http://www.w3.org/2000/svg"
 width="512.000000pt" height="512.000000pt" viewBox="0 0 512.000000 512.000000"
 preserveAspectRatio="xMidYMid meet">

<g transform="translate(0.000000,512.000000) scale(0.100000,-0.100000)"
fill="#90EE90" stroke="none">
<path d="M2321 5110 c-1340 -130 -2361 -1283 -2318 -2620 13 -389 97 -726 268
-1069 249 -502 647 -900 1150 -1150 815 -406 1779 -350 2539 147 297 194 579
482 771 788 74 116 184 342 234 478 51 138 110 376 131 531 23 157 26 521 6
660 -59 415 -191 769 -410 1099 -92 140 -185 254 -315 385 -399 403 -895 653
-1462 737 -122 18 -466 26 -594 14z m752 -1530 c81 -30 157 -103 203 -194 43
-86 45 -88 255 -175 279 -114 301 -129 351 -225 17 -31 22 -58 22 -112 -1 -84
-24 -141 -81 -196 -21 -20 -196 -125 -398 -238 -198 -111 -364 -205 -368 -209
-11 -11 395 -440 444 -470 34 -20 54 -24 152 -26 118 -3 152 -11 204 -51 57
-44 58 -131 1 -155 -36 -15 -380 -20 -429 -7 -28 8 -170 149 -412 410 -111
120 -147 165 -151 190 -3 18 -10 66 -17 106 -34 220 -220 389 -449 409 -75 6
-161 -12 -245 -53 -80 -39 -248 -169 -264 -204 -13 -28 -13 -33 5 -57 46 -61
67 -58 189 33 135 100 174 117 277 122 76 4 92 1 141 -21 144 -66 226 -215
197 -360 -16 -80 -37 -120 -131 -248 -44 -59 -79 -110 -79 -113 0 -3 93 -6
208 -6 188 0 210 -2 239 -20 18 -10 39 -30 48 -44 23 -35 23 -100 1 -125 -19
-21 -24 -21 -764 -21 -842 0 -823 -2 -908 73 -105 93 -124 221 -73 499 51 281
186 542 389 752 222 231 485 375 795 437 61 12 118 29 128 37 10 9 30 40 43
68 88 185 285 266 477 194z"/>
<path d="M2900 3343 c-58 -23 -93 -98 -68 -149 43 -89 167 -88 204 3 18 42 7
88 -30 122 -24 22 -79 35 -106 24z"/>
</g>
</svg>
