<?xml version="1.0" standalone="no"?>
<!DOCTYPE svg PUBLIC "-//W3C//DTD SVG 20010904//EN"
 "http://www.w3.org/TR/2001/REC-SVG-20010904/DTD/svg10.dtd">
<svg version="1.0" xmlns="http://www.w3.org/2000/svg"
 width="512.000000pt" height="512.000000pt" viewBox="0 0 512.000000 512.000000"
 preserveAspectRatio="xMidYMid meet">

<g transform="translate(0.000000,512.000000) scale(0.100000,-0.100000)"
fill="#87CEEB" stroke="none">
<path d="M2321 5110 c-1340 -130 -2361 -1283 -2318 -2620 13 -389 97 -726 268
-1069 249 -502 647 -900 1150 -1150 815 -406 1779 -350 2539 147 297 194 579
482 771 788 74 116 184 342 234 478 51 138 110 376 131 531 23 157 26 521 6
660 -43 299 -120 554 -246 810 -378 768 -1090 1285 -1941 1411 -122 18 -466
26 -594 14z m914 -1235 c94 -31 172 -77 238 -139 49 -46 57 -49 167 -61 224
-25 422 -137 494 -279 30 -60 29 -88 -7 -110 -12 -8 -130 -35 -261 -62 -236
-47 -240 -49 -298 -91 -63 -47 -139 -142 -170 -213 -11 -25 -37 -83 -58 -130
-50 -113 -67 -197 -75 -365 -13 -282 -43 -530 -81 -664 -20 -72 -114 -267
-170 -355 -106 -164 -223 -238 -249 -156 -10 31 1 53 49 93 93 77 241 353 276
512 26 122 48 331 60 560 11 225 27 295 100 451 84 179 134 258 204 323 14 14
26 28 26 32 0 3 -44 25 -97 48 -178 76 -177 75 -56 244 l87 120 -41 36 c-99
88 -201 121 -376 121 -214 0 -317 -42 -453 -182 -108 -112 -164 -189 -238
-327 -68 -128 -118 -192 -217 -285 l-78 -72 75 -12 c153 -24 278 -111 339
-236 95 -192 65 -355 -110 -588 -107 -142 -268 -275 -423 -349 -74 -36 -108
-33 -118 8 -10 38 3 52 100 108 175 101 304 223 408 385 66 103 82 154 76 249
-8 129 -75 229 -194 287 -58 28 -62 28 -207 26 -175 -3 -156 4 -383 -147 -241
-162 -402 -295 -469 -388 -57 -80 -126 -99 -141 -40 -9 33 5 59 67 127 134
146 462 388 843 621 144 88 264 222 346 385 55 110 127 207 237 321 111 114
151 143 248 178 115 41 182 51 320 47 108 -3 145 -9 210 -31z m-287 -281 c42
-29 17 -104 -35 -104 -20 0 -53 38 -53 60 0 22 33 60 53 60 7 0 23 -7 35 -16z"/>
<path d="M3480 3534 c-14 -21 -33 -51 -44 -67 l-19 -28 154 6 c85 3 204 2 264
-3 61 -5 112 -7 114 -5 7 5 -31 31 -85 57 -75 37 -189 66 -279 72 l-80 6 -25
-38z"/>
<path d="M3578 3310 c41 -19 44 -19 130 -1 l87 19 -130 0 -130 1 43 -19z"/>
</g>
</svg>
