<?xml version="1.0" encoding="UTF-8"?>
<svg version="1.1" xmlns="http://www.w3.org/2000/svg" width="512" height="512">
<path d="M0 0 C0.99422974 0.00215515 1.98845947 0.0043103 3.01281738 0.00653076 C17.48109955 0.05686686 31.66189071 0.35398296 45.875 3.3125 C46.85130371 3.51117676 47.82760742 3.70985352 48.83349609 3.91455078 C108.39726195 16.37617551 164.74968623 48.26621392 201.875 97.3125 C202.29023926 97.85132812 202.70547852 98.39015625 203.13330078 98.9453125 C210.81837664 108.94179469 217.56228061 119.40260449 223.875 130.3125 C224.26929199 130.98974121 224.66358398 131.66698242 225.06982422 132.36474609 C246.58696876 169.77429761 256.35074631 212.57930467 256.1875 255.4375 C256.18476578 256.9278476 256.18476578 256.9278476 256.18197632 258.44830322 C256.13719978 272.942192 255.67610213 287.05386097 252.875 301.3125 C252.71402832 302.20807617 252.55305664 303.10365234 252.38720703 304.02636719 C244.49797508 347.63313051 224.80850867 388.77106217 195.875 422.3125 C195.24078125 423.05757813 194.6065625 423.80265625 193.953125 424.5703125 C182.14198485 438.07529833 169.39139772 450.74668743 154.875 461.3125 C153.72505169 462.16899066 152.57531411 463.02576433 151.42578125 463.8828125 C143.23410474 469.9234414 134.71854922 475.28255071 125.875 480.3125 C125.24319824 480.67698242 124.61139648 481.04146484 123.96044922 481.41699219 C97.93166464 496.31500327 68.51361377 505.96041257 38.875 510.3125 C37.67254639 510.48910156 36.47009277 510.66570312 35.23120117 510.84765625 C23.51493596 512.45161689 11.87584274 512.71324553 0.0625 512.6875 C-0.92433777 512.68662384 -1.91117554 512.68574768 -2.92791748 512.68484497 C-67.88219852 512.49532667 -130.29571624 487.41579016 -177.125 442.3125 C-177.78435547 441.68037598 -178.44371094 441.04825195 -179.12304688 440.39697266 C-188.61130305 431.25252521 -197.3512044 421.95515991 -205.125 411.3125 C-205.98306152 410.16144983 -206.84113451 409.01040823 -207.69921875 407.859375 C-213.73736829 399.66819386 -219.09595521 391.15445895 -224.125 382.3125 C-224.48948242 381.68069824 -224.85396484 381.04889648 -225.22949219 380.39794922 C-240.15973018 354.31285999 -249.63885054 324.97664886 -254.125 295.3125 C-254.38990234 293.62882324 -254.38990234 293.62882324 -254.66015625 291.91113281 C-256.3170586 280.29802257 -256.52373513 268.78070055 -256.5 257.0625 C-256.49945618 256.05048523 -256.49891235 255.03847046 -256.49835205 253.99578857 C-256.4576051 237.46132605 -255.53386907 221.54185136 -252.125 205.3125 C-251.91601074 204.29720215 -251.70702148 203.2819043 -251.49169922 202.23583984 C-242.71380189 160.92383315 -223.71113066 122.2919774 -196.125 90.3125 C-195.49078125 89.56742187 -194.8565625 88.82234375 -194.203125 88.0546875 C-182.39198485 74.54970167 -169.64139772 61.87831257 -155.125 51.3125 C-153.97505169 50.45600934 -152.82531411 49.59923567 -151.67578125 48.7421875 C-143.48410474 42.7015586 -134.96854922 37.34244929 -126.125 32.3125 C-125.49319824 31.94801758 -124.86139648 31.58353516 -124.21044922 31.20800781 C-98.17975097 16.30890142 -68.76448404 6.66904478 -39.125 2.3125 C-37.32675781 2.04651001 -37.32675781 2.04651001 -35.4921875 1.77514648 C-23.66616559 0.14661384 -11.92341476 -0.04652724 0 0 Z M-56.125 163.3125 C-60.66380485 169.88780917 -63.11221818 176.22009182 -62.125 184.3125 C-60.36690338 190.64164783 -57.56944096 195.54763975 -53.19921875 200.42578125 C-52.125 202.3125 -52.125 202.3125 -52.234375 204.65234375 C-55.60547778 214.72129546 -63.77195318 226.61391116 -73.125 231.875 C-77.34330705 233.66984829 -80.57110393 233.90009949 -85.125 233.3125 C-93.31190145 229.63674833 -97.3822996 220.65043068 -101.67358398 213.1953125 C-110.40538213 198.02893644 -119.567378 183.52007222 -136.9921875 177.6875 C-140.02786357 177.15375476 -142.98208302 177.14143766 -146.0625 177.125 C-147.26777344 177.11082031 -148.47304687 177.09664062 -149.71484375 177.08203125 C-153.198321 177.31745526 -156.55317001 177.74067001 -159.125 180.3125 C-159.44900907 184.75333026 -158.78108273 187.6144985 -156.9375 191.625 C-140.97414389 231.44268938 -140.77339706 295.77521919 -156.0546875 335.74414062 C-157.96794772 340.24502769 -157.96794772 340.24502769 -157.125 344.8203125 C-152.6539231 348.15615503 -146.65076299 347.50867577 -141.30859375 347.09375 C-126.280597 344.87054707 -116.34615919 335.73965597 -107.20361328 324.16430664 C-102.86808524 318.21606808 -99.3735031 311.73365446 -95.76953125 305.32617188 C-91.69333675 298.29751365 -87.44262787 290.98982339 -79.2890625 288.41796875 C-69.04039281 288.74907962 -62.92360567 293.36378576 -55.6875 300.3125 C-54.33040495 301.76585472 -52.97445764 303.22034781 -51.63050842 304.68586731 C-50.65374704 305.74121311 -49.66467825 306.78534915 -48.66160583 307.8157196 C-40.73122823 316.03416524 -37.78813375 322.40427715 -37.94921875 333.8515625 C-38.00504841 335.4219757 -38.0636587 336.99229243 -38.125 338.5625 C-38.18975628 341.69260044 -38.22534541 344.82247076 -38.25 347.953125 C-38.25854004 348.69313248 -38.26708008 349.43313995 -38.27587891 350.1955719 C-38.28182311 358.95330993 -36.51135441 365.52031088 -30.625 372.03515625 C-27.19216924 374.95842619 -22.75782862 374.89749577 -18.45703125 374.82421875 C-8.37863709 373.27642316 0.0805503 367.06530555 7.80712891 360.79077148 C17.63561557 352.8806038 24.13598284 350.86153334 36.60351562 351.29638672 C73.53275019 351.55835248 110.24425003 325.69837784 135.5625 301 C144.75758012 291.78159256 157.0864411 277.67734545 159.3515625 264.55078125 C158.6341124 259.675649 156.45159804 255.80448065 154.125 251.5 C153.62983887 250.57364746 153.13467773 249.64729492 152.62451172 248.69287109 C140.61737969 226.71186 122.68451126 202.60809349 100.90234375 189.52734375 C93.86365048 185.21697304 91.64813474 181.15506033 89.64160156 173.38647461 C86.57867593 161.76497581 78.99844785 154.40325571 68.875 148.3125 C33.93439104 129.09516507 -27.89471408 132.63224844 -56.125 163.3125 Z " fill="#00008B" transform="translate(256.125,-0.3125)"/>
<path d="M0 0 C-1.48292169 4.22122682 -3.6959422 7.69917037 -6.1875 11.375 C-13.41038917 22.39879614 -18.24903546 33.46436796 -21.40332031 46.27441406 C-21.88327067 48.19675492 -22.43532172 50.10081987 -23 52 C-23.99 52.495 -23.99 52.495 -25 53 C-27.62247177 51.79716753 -30.14509134 50.54238144 -32.6875 49.1875 C-42.13071883 44.17270446 -50.96791303 41.17662394 -61.71875 43.6171875 C-68.17532395 45.81475634 -71.77096279 49.0230735 -75 55 C-80.48526707 66.20808507 -79.93911195 79.42581922 -76 91 C-73.51238028 96.52569146 -69.70788566 98.80349238 -64.3125 101.1875 C-51.80174317 104.2561762 -40.96769517 99.51387496 -30.27734375 93.171875 C-28 92 -28 92 -25 92 C-24.85304688 92.72960937 -24.70609375 93.45921875 -24.5546875 94.2109375 C-20.90424113 111.20439475 -15.55788292 128.94461407 -5 143 C-5 143.66 -5 144.32 -5 145 C-32.53606437 154.60569552 -58.62937317 160.63849302 -86.25 147.8125 C-98.90047175 141.12275901 -107.44278144 131.67807585 -116 120.5 C-125.51035373 108.09534454 -135.70685189 97.09771604 -151 92 C-156.79189655 91.24990192 -161.64819757 91.26493047 -166.6875 94.4375 C-176.6437325 102.28830956 -182.6004126 112.51168566 -188.91210938 123.31835938 C-194.55702311 132.77455933 -201.34622862 143.65887252 -212 148 C-215.64447452 148.91353539 -219.27248277 149.5409124 -223 150 C-222.23417507 143.15494623 -220.96530643 136.48183781 -219.54882812 129.74414062 C-216.19425727 112.92026625 -215.6245463 96.04400311 -215.6875 78.9375 C-215.68932281 77.90707581 -215.69114563 76.87665161 -215.69302368 75.81500244 C-215.757667 54.07758046 -217.36968044 33.45908397 -222.9140625 12.36328125 C-223.89918453 8.58533003 -224.53313274 4.87499824 -225 1 C-216.4704069 1.27514816 -209.97851946 3.7686336 -204.02929688 10.09594727 C-198.09681264 17.52469805 -193.41889394 25.47006404 -188.73242188 33.72265625 C-183.39113436 42.89683818 -177.16960557 52.82319771 -167 57 C-159.42795178 58.98382075 -153.412832 57.45900234 -146.6796875 53.70703125 C-134.18679498 45.80898225 -127.09140705 34.15817214 -120.5 21.25 C-117.16684487 14.92239372 -113.08134622 10.0015345 -108 5 C-107.37480469 4.37609375 -106.74960938 3.7521875 -106.10546875 3.109375 C-77.16450321 -23.94281174 -31.91473097 -18.67523043 0 0 Z " fill="#00008B" transform="translate(335,186)"/>
<path d="M0 0 C17.85414256 3.16038845 36.81375646 29.39000101 46.46044922 43.17651367 C50.11875963 48.53791191 53.56169466 54.00727298 56.8125 59.625 C57.25134521 60.35847656 57.69019043 61.09195313 58.14233398 61.84765625 C60.80490261 66.61219522 61.53655007 69.53528219 60 75 C49.49665437 99.9279403 21.51562452 121.26285173 -2 133 C-2.66 133 -3.32 133 -4 133 C-21.4610475 109.20887826 -26.40048826 79.07728776 -22.37109375 50.34521484 C-19.47518495 32.04383332 -11.28604137 14.63005362 0 0 Z M2.5625 54.25 C1.40521374 59.90784396 0.90174755 65.61004526 3.625 70.875 C7.03773495 75.36544073 9.78382213 77.67764686 15.4375 78.5 C20.71539449 77.75924288 24.26961434 75.96110374 27.875 71.875 C30.07055883 66.26412743 30.79666609 60.49601892 28.9375 54.6875 C27.08830973 50.61763034 24.91536171 48.27802863 21 46 C12.52993799 44.169013 7.11387811 47.12610383 2.5625 54.25 Z " fill="#00008B" transform="translate(343,193)"/>
<path d="M0 0 C1.29421875 -0.01611328 2.5884375 -0.03222656 3.921875 -0.04882812 C21.63290969 -0.05766597 39.47823975 3.66860112 52.703125 16.296875 C56.06390559 19.93088978 57.93145877 22.31033387 58.625 27.3125 C57.83403931 26.98040527 57.83403931 26.98040527 57.02709961 26.64160156 C29.34936858 15.09594795 -0.38393309 7.61909731 -29.49853516 19.15380859 C-43.5421213 25.26605978 -54.50802851 33.66904558 -64.375 45.3125 C-68.21513888 43.52731147 -69.72817643 42.34721775 -71.375 38.3125 C-72.12079676 32.49887949 -72.22469292 26.89004803 -68.8125 21.92578125 C-60.45337438 12.54447994 -48.62452659 8.11338541 -36.875 4.5625 C-35.89853516 4.26448486 -35.89853516 4.26448486 -34.90234375 3.96044922 C-23.40878736 0.6793875 -11.90014318 -0.0294558 0 0 Z " fill="#00008B" transform="translate(276.375,147.6875)"/>
<path d="M0 0 C0.69996094 0.32226562 1.39992188 0.64453125 2.12109375 0.9765625 C3.8125 1.9375 3.8125 1.9375 6 5 C7.02257116 10.19198335 7.32369926 15.15601102 5 20 C0.97710865 24.37484176 -4.62725224 26.69862286 -10 29 C-10.84949219 29.39832031 -11.69898438 29.79664063 -12.57421875 30.20703125 C-18.42528459 32.57557731 -24.78511931 32.81536336 -31 32 C-35.22321774 29.71946242 -36.59815785 27.49198986 -38 23 C-38.19006914 20.16573377 -38.27968115 17.45460269 -38.25 14.625 C-38.25773437 13.89539063 -38.26546875 13.16578125 -38.2734375 12.4140625 C-38.25389872 6.94320299 -37.96984674 1.49083895 -34.44921875 -2.9609375 C-33.86785156 -3.42757812 -33.28648437 -3.89421875 -32.6875 -4.375 C-32.11386719 -4.85710937 -31.54023438 -5.33921875 -30.94921875 -5.8359375 C-21.23356856 -11.63806927 -8.60368347 -4.99241721 0 0 Z " fill="#00008B" transform="translate(304,246)"/>
<path d="M0 0 C3.73732951 1.35720553 6.7803354 3.07983599 10.0625 5.3125 C15.77158126 9.02069892 21.65978155 11.57473019 28 14 C29.66745315 14.66469708 31.33437965 15.33072346 33 16 C33 16.66 33 17.32 33 18 C30.51002162 19.74268595 28.02731458 21.35622995 25.4375 22.9375 C24.73302734 23.38029297 24.02855469 23.82308594 23.30273438 24.27929688 C10.51888709 32.1852522 10.51888709 32.1852522 4 31 C-1.13498971 25.15673585 -0.13498966 16.39510769 -0.0625 9.0625 C-0.05573242 7.75055664 -0.05573242 7.75055664 -0.04882812 6.41210938 C-0.03714834 4.27470953 -0.01921689 2.13734537 0 0 Z " fill="#00008B" transform="translate(228,333)"/>
<path d="M0 0 C1.65 0.33 3.3 0.66 5 1 C5.05399736 2.45792884 5.09279177 3.91642712 5.125 5.375 C5.14820313 6.18710938 5.17140625 6.99921875 5.1953125 7.8359375 C5 10 5 10 3 12 C0.875 11.625 0.875 11.625 -1 11 C-2.25 3.375 -2.25 3.375 0 0 Z " fill="#00008B" transform="translate(357,249)"/>
</svg>
