<?xml version="1.0" standalone="no"?>
<!DOCTYPE svg PUBLIC "-//W3C//DTD SVG 20010904//EN"
 "http://www.w3.org/TR/2001/REC-SVG-20010904/DTD/svg10.dtd">
<svg version="1.0" xmlns="http://www.w3.org/2000/svg"
 width="512.000000pt" height="512.000000pt" viewBox="0 0 512.000000 512.000000"
 preserveAspectRatio="xMidYMid meet">

<g transform="translate(0.000000,512.000000) scale(0.100000,-0.100000)"
fill="#808080" stroke="none">
<path d="M2315 5109 c-800 -83 -1501 -518 -1927 -1196 -487 -774 -516 -1777
-75 -2578 200 -364 487 -676 841 -913 238 -159 600 -311 876 -366 214 -43 295
-51 530 -51 236 0 333 10 532 51 879 183 1616 843 1897 1699 93 282 126 493
126 805 0 301 -32 513 -116 775 -124 390 -330 728 -622 1024 -399 404 -893
653 -1462 737 -123 18 -478 26 -600 13z m-75 -1116 c47 -67 88 -124 91 -128 3
-3 41 4 84 15 100 26 191 25 291 0 l79 -21 17 23 c10 13 50 70 90 128 46 66
80 106 93 108 26 3 212 -114 220 -139 9 -28 -12 -59 -41 -59 -13 0 -54 19 -90
41 -36 23 -69 38 -73 33 -17 -19 -121 -172 -121 -178 0 -4 30 -37 68 -74 123
-123 172 -250 172 -455 l0 -118 78 -118 c42 -65 82 -126 87 -136 10 -16 30 1
163 129 83 80 159 146 167 146 25 0 428 -171 449 -191 25 -23 15 -66 -17 -74
-15 -4 -85 20 -215 74 -106 45 -195 81 -198 81 -3 0 -70 -61 -149 -136 -144
-136 -144 -137 -130 -164 8 -15 32 -72 54 -127 134 -336 166 -700 86 -975 -14
-50 -18 -78 -11 -78 6 0 31 9 55 20 71 33 32 61 399 -291 150 -145 162 -165
117 -195 -33 -22 -29 -25 -270 205 -109 105 -202 191 -206 191 -4 0 -42 -15
-86 -33 -69 -30 -82 -40 -115 -88 -162 -235 -394 -366 -709 -401 -261 -29
-551 49 -742 201 -78 62 -122 110 -185 200 -32 47 -47 58 -115 88 -44 18 -82
33 -86 33 -4 0 -97 -86 -206 -191 -241 -230 -237 -227 -270 -205 -52 34 -58
28 347 414 53 51 103 92 111 92 9 0 36 -9 62 -20 26 -11 50 -20 54 -20 5 0 -2
36 -15 80 -79 274 -47 636 87 973 22 55 46 112 54 127 14 27 14 28 -130 164
-79 75 -146 136 -149 136 -3 0 -92 -36 -198 -81 -130 -54 -200 -78 -215 -74
-32 8 -42 51 -17 74 21 20 424 191 449 191 8 0 84 -66 167 -146 133 -128 153
-145 163 -129 5 10 45 71 88 136 l77 118 0 118 c0 205 49 332 172 455 38 37
68 70 68 74 0 6 -104 159 -121 178 -4 5 -36 -9 -71 -31 -86 -54 -95 -56 -118
-33 -21 21 -25 37 -12 57 15 24 197 134 217 131 13 -2 51 -47 105 -125z"/>
<path d="M2418 3781 c-150 -48 -272 -180 -307 -332 -6 -24 -11 -86 -11 -136
l0 -93 461 0 461 0 -4 118 c-4 111 -6 123 -40 193 -61 128 -154 211 -279 250
-79 25 -203 24 -281 0z"/>
<path d="M2045 3059 c-167 -227 -301 -536 -345 -797 -27 -157 -27 -350 1 -485
78 -383 351 -628 747 -671 l62 -7 0 1011 0 1010 -210 0 -210 0 -45 -61z"/>
<path d="M2610 2110 l0 -1011 63 7 c379 41 643 266 738 629 21 80 24 111 24
285 -1 163 -4 211 -23 293 -58 261 -182 536 -337 746 l-45 61 -210 0 -210 0 0
-1010z"/>
</g>
</svg>
