<?xml version="1.0" encoding="UTF-8"?>
<svg version="1.1" xmlns="http://www.w3.org/2000/svg" width="512" height="512">
<path d="M0 0 C0.99422974 0.00215515 1.98845947 0.0043103 3.01281738 0.00653076 C17.48109955 0.05686686 31.66189071 0.35398296 45.875 3.3125 C46.85130371 3.51117676 47.82760742 3.70985352 48.83349609 3.91455078 C108.39726195 16.37617551 164.74968623 48.26621392 201.875 97.3125 C202.29023926 97.85132812 202.70547852 98.39015625 203.13330078 98.9453125 C210.81837664 108.94179469 217.56228061 119.40260449 223.875 130.3125 C224.26929199 130.98974121 224.66358398 131.66698242 225.06982422 132.36474609 C246.58696876 169.77429761 256.35074631 212.57930467 256.1875 255.4375 C256.18476578 256.9278476 256.18476578 256.9278476 256.18197632 258.44830322 C256.13719978 272.942192 255.67610213 287.05386097 252.875 301.3125 C252.71402832 302.20807617 252.55305664 303.10365234 252.38720703 304.02636719 C244.49797508 347.63313051 224.80850867 388.77106217 195.875 422.3125 C195.24078125 423.05757813 194.6065625 423.80265625 193.953125 424.5703125 C182.14198485 438.07529833 169.39139772 450.74668743 154.875 461.3125 C153.72505169 462.16899066 152.57531411 463.02576433 151.42578125 463.8828125 C143.23410474 469.9234414 134.71854922 475.28255071 125.875 480.3125 C125.24319824 480.67698242 124.61139648 481.04146484 123.96044922 481.41699219 C97.93166464 496.31500327 68.51361377 505.96041257 38.875 510.3125 C37.67254639 510.48910156 36.47009277 510.66570312 35.23120117 510.84765625 C23.51493596 512.45161689 11.87584274 512.71324553 0.0625 512.6875 C-0.92433777 512.68662384 -1.91117554 512.68574768 -2.92791748 512.68484497 C-67.88219852 512.49532667 -130.29571624 487.41579016 -177.125 442.3125 C-177.78435547 441.68037598 -178.44371094 441.04825195 -179.12304688 440.39697266 C-188.61130305 431.25252521 -197.3512044 421.95515991 -205.125 411.3125 C-205.98306152 410.16144983 -206.84113451 409.01040823 -207.69921875 407.859375 C-213.73736829 399.66819386 -219.09595521 391.15445895 -224.125 382.3125 C-224.48948242 381.68069824 -224.85396484 381.04889648 -225.22949219 380.39794922 C-240.15973018 354.31285999 -249.63885054 324.97664886 -254.125 295.3125 C-254.38990234 293.62882324 -254.38990234 293.62882324 -254.66015625 291.91113281 C-256.3170586 280.29802257 -256.52373513 268.78070055 -256.5 257.0625 C-256.49945618 256.05048523 -256.49891235 255.03847046 -256.49835205 253.99578857 C-256.4576051 237.46132605 -255.53386907 221.54185136 -252.125 205.3125 C-251.91601074 204.29720215 -251.70702148 203.2819043 -251.49169922 202.23583984 C-242.71380189 160.92383315 -223.71113066 122.2919774 -196.125 90.3125 C-195.49078125 89.56742187 -194.8565625 88.82234375 -194.203125 88.0546875 C-182.39198485 74.54970167 -169.64139772 61.87831257 -155.125 51.3125 C-153.97505169 50.45600934 -152.82531411 49.59923567 -151.67578125 48.7421875 C-143.48410474 42.7015586 -134.96854922 37.34244929 -126.125 32.3125 C-125.49319824 31.94801758 -124.86139648 31.58353516 -124.21044922 31.20800781 C-98.17975097 16.30890142 -68.76448404 6.66904478 -39.125 2.3125 C-37.32675781 2.04651001 -37.32675781 2.04651001 -35.4921875 1.77514648 C-23.66616559 0.14661384 -11.92341476 -0.04652724 0 0 Z M23.875 136.3125 C22.95203125 136.75335938 22.0290625 137.19421875 21.078125 137.6484375 C13.89727274 141.3200032 7.87915525 145.95320322 1.875 151.3125 C1.01777344 152.07433594 0.16054688 152.83617187 -0.72265625 153.62109375 C-15.32012211 167.36121231 -23.04705812 185.28353441 -27.99462891 204.37304688 C-33.47623692 225.41712754 -33.47623692 225.41712754 -42.33203125 231.9375 C-48.38852387 234.91915791 -56.77333271 234.22309328 -63.1875 232.48046875 C-65.57880917 231.53035037 -67.8450483 230.50241765 -70.125 229.3125 C-71.24841797 228.75175781 -71.24841797 228.75175781 -72.39453125 228.1796875 C-72.96558594 227.89351563 -73.53664063 227.60734375 -74.125 227.3125 C-73.485625 226.69375 -72.84625 226.075 -72.1875 225.4375 C-71.16205692 224.40037096 -70.14211236 223.35780023 -69.125 222.3125 C-68.41214844 221.58417969 -67.69929688 220.85585937 -66.96484375 220.10546875 C-55.39472721 207.83998628 -51.4689282 194.33954872 -51.90234375 177.51171875 C-52.39505933 170.43217387 -53.46493099 164.90458281 -58.125 159.3125 C-61.10370417 156.74750475 -63.27806664 156.06199198 -67.125 156.25 C-70.81741829 156.90936041 -72.79482767 158.32048939 -75.04296875 161.42578125 C-76.66604242 164.2559061 -77.89127763 167.20961865 -79.03515625 170.26171875 C-81.19572248 174.32730036 -84.9436694 175.76811076 -89 177.5625 C-94.96563936 180.48372753 -98.54046307 184.14342615 -101.5 190.0625 C-102.25882193 192.40506017 -102.25882193 192.40506017 -102.125 195.3125 C-103.115 194.735 -104.105 194.1575 -105.125 193.5625 C-107.80947899 192.0354988 -110.50871629 190.54775752 -113.25 189.125 C-113.87132812 188.80144531 -114.49265625 188.47789062 -115.1328125 188.14453125 C-120.21195074 186.0232441 -125.22493948 186.21923471 -130.625 186.3125 C-135.29476905 186.39315232 -139.54857199 186.37603609 -144.125 185.3125 C-148.03556497 184.9273686 -151.2355544 184.97648722 -154.9375 186.375 C-158.0231411 189.1079964 -159.0193647 191.34522041 -160.125 195.3125 C-157.06660011 211.28599072 -147.70760677 225.58533021 -134.375 234.875 C-126.38171417 239.7280664 -119.41945344 241.47003311 -110.125 241.3125 C-110.15851563 242.47652344 -110.19203125 243.64054687 -110.2265625 244.83984375 C-110.19195832 271.08711464 -92.48098152 297.01418722 -74.875 315 C-56.06046415 333.58461157 -32.11902186 345.05485849 -6.125 349.3125 C-6.125 353.91319809 -7.05512067 355.19408861 -9.5625 358.9375 C-13.56051824 364.96279618 -15.46452358 368.95047841 -14.125 376.3125 C-11.57824572 380.51157206 -8.83152277 383.74365908 -4.125 385.3125 C6.96387856 386.55364054 15.14218618 382.44300198 23.80859375 375.84765625 C33.01397943 368.23708898 42.1214432 360.24574696 48.875 350.3125 C50.80520075 353.20780113 52.16325172 356.03609645 53.625 359.1875 C56.4750769 364.96449411 59.04301735 368.39650867 64.875 371.3125 C71.54213761 372.1458922 76.30536126 369.91174767 81.875 366.3125 C93.06551878 357.23529861 100.91286957 343.3124512 106.703125 330.28125 C111.08622137 320.5332809 116.21553879 314.5043293 124.34570312 307.63574219 C141.5756246 292.72734908 151.45910714 269.96488159 156.875 248.3125 C157.24625 246.87777344 157.24625 246.87777344 157.625 245.4140625 C162.9376459 220.25278122 158.07224781 192.78787199 144.6640625 170.9921875 C141.94178727 166.91471849 139.00268673 163.08476854 135.875 159.3125 C135.41738281 158.72082031 134.95976562 158.12914062 134.48828125 157.51953125 C121.06555126 140.71227336 99.612438 130.99809449 78.875 127.3125 C74.42688746 126.90604526 70.02722317 126.83470175 65.5625 126.875 C63.79700806 126.88527222 63.79700806 126.88527222 61.99584961 126.89575195 C48.21753953 127.14871274 36.34120481 130.357972 23.875 136.3125 Z " fill="#FF0000" transform="translate(256.125,-0.3125)"/>
<path d="M0 0 C4.26808012 3.38611019 8.14844833 7.15399013 12 11 C12.65871094 11.64710938 13.31742187 12.29421875 13.99609375 12.9609375 C25.46624217 25.09333467 34.38799035 43.16973456 35 60 C34.29617188 59.71125 33.59234375 59.4225 32.8671875 59.125 C20.20126783 54.36287877 8.45322108 54.68529581 -4 60 C-11.94041085 63.91351713 -19.43627505 68.62970496 -26.9375 73.3125 C-36.99360861 79.5757339 -45.95482346 83.48423976 -58 82 C-65.31740705 79.47675619 -70.70470603 75.56386831 -76.2421875 70.28125 C-78.10899923 68.64987417 -78.10899923 68.64987417 -81.5 69.0625 C-82.325 69.371875 -83.15 69.68125 -84 70 C-84.39255635 74.353936 -84.39255635 74.353936 -82.453125 78.125 C-71.64040855 87.32731187 -61.17801147 91.85396186 -46.99121094 91.17919922 C-35.94541048 90.18513135 -26.31311927 84.40828799 -17.1796875 78.56640625 C6.40133393 63.49362273 6.40133393 63.49362273 20 65 C25.59299163 66.47667221 32.40553996 68.29001787 36 73 C39.92406149 92.03752606 28.01033817 116.56604111 18 132 C1.12492828 157.19307582 -23.04846491 173.71917089 -52 182 C-52.66 182 -53.32 182 -54 182 C-53.38341523 178.17266281 -52.23303037 174.7054374 -50.92993164 171.07421875 C-46.13737267 157.6079566 -41.30072449 142.09782652 -46 128 C-48.41645782 127.83312552 -48.41645782 127.83312552 -51 128 C-53.86751918 130.86751918 -53.27143891 132.9850161 -53.375 137 C-54.60377267 163.61231046 -65.68577514 189.4795104 -85 208 C-93.74714584 215.90631547 -102.71266832 224 -115 224 C-115.66 223.34 -116.32 222.68 -117 222 C-116.74680093 216.96495569 -114.83592818 213.70603807 -112.1875 209.5 C-103.60811152 195.2443398 -102.82064087 180.48289331 -102.8125 164.25 C-102.80025391 162.94933594 -102.78800781 161.64867187 -102.77539062 160.30859375 C-102.77345703 159.05691406 -102.77152344 157.80523437 -102.76953125 156.515625 C-102.76542236 155.38415039 -102.76131348 154.25267578 -102.75708008 153.08691406 C-103.00064398 149.99181662 -103.68462803 147.79300681 -105 145 C-107.41645782 144.83312552 -107.41645782 144.83312552 -110 145 C-112.18872156 146.76919378 -112.18872156 146.76919378 -112.21118164 149.00854492 C-112.18592407 150.23214722 -112.18592407 150.23214722 -112.16015625 151.48046875 C-112.14263306 152.84582764 -112.14263306 152.84582764 -112.12475586 154.23876953 C-112.10421143 155.21185059 -112.08366699 156.18493164 -112.0625 157.1875 C-111.80663243 180.44301929 -111.80663243 180.44301929 -114 188 C-145.88295278 183.19999609 -173.23576599 168.94642419 -192.98461914 142.98632812 C-205.4223785 125.91950494 -211.86843797 107.48644965 -213.640625 86.53515625 C-213.77283824 83.15893888 -213.77283824 83.15893888 -215 81 C-217.65861924 80.62233819 -220.2655221 80.34811142 -222.9375 80.125 C-235.16181806 78.84605057 -243.72977773 75.56328633 -252 66 C-262 51.60693642 -262 51.60693642 -262 44 C-260.75605469 44.144375 -259.51210938 44.28875 -258.23046875 44.4375 C-256.54961921 44.62625128 -254.86861885 44.81366252 -253.1875 45 C-251.88268677 45.14634888 -251.88268677 45.14634888 -250.55151367 45.2956543 C-245.91526751 45.78824736 -241.47975168 46.05710101 -236.8125 45.8125 C-231.37419305 45.68622352 -228.19515977 47.72369159 -224 51 C-220.55059411 53.60465343 -218.67805642 54.90647498 -214.375 55.5 C-211.05047483 55.23211183 -211.05047483 55.23211183 -208.75 53.625 C-206.99913675 50.99870512 -206.37616449 49.07890261 -205.5625 46.0625 C-204.26288824 41.3975778 -202.99047139 38.97162763 -199 36 C-194.79320044 33.63746136 -190.58098446 31.52699482 -186 30 C-184.90044895 28.21971869 -184.90044895 28.21971869 -184 26 C-182.33333333 22.66666667 -180.66666667 19.33333333 -179 16 C-178.34 16.33 -177.68 16.66 -177 17 C-173.66321804 30.86618281 -175.12848941 43.01682864 -181.78515625 55.7109375 C-184.84015207 60.24763324 -188.52318456 63.1800989 -192.71484375 66.69140625 C-195.12724781 69.12855292 -195.90848395 70.40327743 -196.4375 73.75 C-196.35970792 78.16859002 -195.03925051 80.73836531 -192 84 C-184.71835892 90.53627625 -172.70039243 93.00501536 -163.125 93.5 C-155.7270656 93.06233594 -148.70626048 89.91989926 -143.72265625 84.4296875 C-136.29657728 73.95571671 -132.2825176 61.89674637 -129.12109375 49.57421875 C-122.9744448 26.45356015 -109.36781196 8.38722273 -88.98779297 -3.87646484 C-61.64927393 -19.32867126 -26.00468736 -17.50810634 0 0 Z M-42.75 30.125 C-45.58690288 32.48908573 -46.74180511 34.50518747 -47.37109375 38.1484375 C-47.4931718 42.24164283 -47.36322315 45.19419792 -44.875 48.5625 C-42.21816773 51.21126699 -42.21816773 51.21126699 -38.9375 51.625 C-35.39438936 50.87114667 -34.19208065 49.84158603 -32 47 C-30.390797 42.17239101 -30.28600081 37.82466459 -32.125 33.125 C-35.27949061 29.54991065 -38.2434217 28.28139979 -42.75 30.125 Z " fill="#FF0000" transform="translate(369,151)"/>
<path d="M0 0 C-4.1489313 11.21822687 -12.35629085 22.88425344 -22 30 C-24.5 31.0625 -24.5 31.0625 -27 31 C-31.97425518 27.44696059 -33.72755038 22.78292144 -35 17 C-35 15.68 -35 14.36 -35 13 C-33.87464844 12.64808594 -32.74929688 12.29617188 -31.58984375 11.93359375 C-22.97969985 9.18354998 -14.7091204 6.19171429 -6.59741211 2.18530273 C-2.16697758 0 -2.16697758 0 0 0 Z " fill="#FF0000" transform="translate(351,330)"/>
</svg>
