<?xml version="1.0" standalone="no"?>
<!DOCTYPE svg PUBLIC "-//W3C//DTD SVG 20010904//EN"
 "http://www.w3.org/TR/2001/REC-SVG-20010904/DTD/svg10.dtd">
<svg version="1.0" xmlns="http://www.w3.org/2000/svg"
 width="512.000000pt" height="512.000000pt" viewBox="0 0 512.000000 512.000000"
 preserveAspectRatio="xMidYMid meet">

<g transform="translate(0.000000,512.000000) scale(0.100000,-0.100000)"
fill="#8B4513" stroke="none">
<path d="M2321 5110 c-1340 -130 -2361 -1283 -2318 -2620 13 -389 97 -726 268
-1069 249 -502 647 -900 1150 -1150 815 -406 1779 -350 2539 147 297 194 579
482 771 788 74 116 184 342 234 478 51 138 110 376 131 531 23 157 26 521 6
660 -43 299 -120 554 -246 810 -378 768 -1090 1285 -1941 1411 -122 18 -466
26 -594 14z m1780 -1090 c28 -15 36 -37 48 -123 40 -289 -22 -657 -155 -920
-62 -124 -95 -170 -193 -268 -134 -133 -267 -189 -446 -189 -110 0 -228 27
-332 75 -42 19 -80 35 -85 35 -21 0 -116 -270 -163 -465 -55 -230 -89 -469
-101 -719 l-7 -134 84 -7 c185 -15 337 -43 509 -96 82 -25 107 -50 91 -92 -14
-37 -49 -43 -123 -18 -187 62 -385 91 -618 91 -233 0 -431 -29 -617 -91 -70
-23 -99 -19 -115 16 -19 43 8 68 108 98 148 45 252 66 412 84 l153 17 -6 95
c-23 358 -96 661 -215 902 l-53 107 -51 -40 c-125 -96 -266 -142 -436 -142
-260 0 -466 111 -617 334 -144 213 -227 598 -208 974 7 156 14 182 49 196 56
21 269 32 400 21 563 -48 963 -296 1052 -651 12 -49 15 -92 11 -175 -5 -120
-32 -220 -93 -353 l-33 -73 54 -102 c65 -123 122 -267 159 -402 15 -55 29
-104 31 -110 3 -12 6 1 40 175 37 187 90 359 186 597 12 30 11 33 -38 94 -67
81 -108 163 -134 268 -18 70 -20 104 -16 200 6 137 23 206 79 321 33 68 58
102 127 170 95 94 181 149 316 203 142 56 334 97 525 111 94 7 401 -4 421 -14z"/>
<path d="M3550 3905 c-271 -37 -475 -119 -613 -245 -224 -205 -260 -555 -83
-804 l34 -48 40 69 c55 94 143 215 210 289 106 116 278 244 329 244 25 0 53
-30 53 -56 0 -29 -17 -46 -84 -85 -74 -43 -217 -177 -290 -272 -61 -80 -156
-233 -156 -253 0 -14 147 -74 230 -95 79 -19 223 -17 290 5 243 80 420 335
500 717 27 131 42 316 35 424 -10 139 13 125 -208 124 -106 -1 -235 -7 -287
-14z"/>
<path d="M1111 3643 l-34 -4 6 -227 c7 -324 41 -492 139 -692 90 -181 238
-307 418 -355 73 -20 226 -19 304 1 73 19 176 71 230 118 l40 33 -48 67 c-111
155 -264 283 -453 378 -75 37 -125 68 -128 79 -10 30 4 59 33 70 22 8 41 3
119 -35 184 -89 365 -234 478 -381 l59 -76 14 27 c29 55 63 171 74 253 13 103
-3 203 -48 297 -37 77 -166 207 -260 262 -142 84 -337 149 -534 177 -96 13
-326 18 -409 8z"/>
</g>
</svg>
