<?xml version="1.0" standalone="no"?>
<!DOCTYPE svg PUBLIC "-//W3C//DTD SVG 20010904//EN"
 "http://www.w3.org/TR/2001/REC-SVG-20010904/DTD/svg10.dtd">
<svg version="1.0" xmlns="http://www.w3.org/2000/svg"
 width="512.000000pt" height="512.000000pt" viewBox="0 0 512.000000 512.000000"
 preserveAspectRatio="xMidYMid meet">

<g transform="translate(0.000000,512.000000) scale(0.100000,-0.100000)"
fill="#006400" stroke="none">
<path d="M2315 5109 c-799 -83 -1501 -519 -1926 -1194 -471 -749 -516 -1703
-120 -2495 131 -262 265 -445 485 -665 233 -233 416 -363 700 -501 244 -118
501 -195 791 -236 118 -17 511 -16 635 0 579 80 1097 337 1491 739 130 132
157 163 243 277 256 341 423 757 488 1211 17 118 17 512 0 630 -58 404 -200
787 -410 1100 -411 614 -1043 1012 -1777 1121 -123 18 -478 26 -600 13z m805
-1070 c64 -14 118 -55 152 -116 l30 -53 67 0 68 0 31 50 c26 42 36 50 61 50
22 0 35 -8 48 -26 17 -26 16 -28 -10 -76 l-27 -48 25 -51 c28 -55 26 -82 -7
-100 -33 -18 -64 -2 -92 46 l-27 45 -73 0 c-71 0 -74 -1 -80 -25 -9 -37 -75
-105 -121 -126 -29 -13 -64 -19 -125 -19 l-85 0 -17 -48 c-23 -64 -96 -136
-165 -162 -47 -17 -78 -20 -237 -20 -209 0 -248 -8 -308 -67 -69 -68 -86 -180
-40 -270 44 -85 98 -111 250 -124 243 -19 416 -96 585 -258 165 -158 262 -372
274 -601 5 -93 -6 -220 -23 -263 -5 -14 32 -16 313 -19 l318 -3 58 -29 c146
-74 225 -243 183 -392 -32 -110 -113 -201 -218 -241 -36 -14 -97 -17 -397 -21
-195 -2 -369 -1 -388 3 -44 8 -69 45 -52 77 7 13 17 26 23 30 6 4 178 8 381 8
408 0 414 1 479 66 33 33 65 98 66 131 l0 22 -45 -20 c-94 -42 -229 -33 -336
22 -67 34 -136 106 -170 176 l-30 64 -111 -3 -111 -3 -38 -73 c-53 -101 -95
-156 -188 -244 -135 -130 -306 -213 -500 -244 -81 -13 -194 -15 -687 -12 -587
3 -589 3 -646 26 -80 32 -148 97 -184 174 -24 53 -28 76 -28 143 1 146 68 255
192 313 l57 27 620 5 620 5 48 28 c68 40 100 93 105 174 5 77 -15 139 -61 185
-46 45 -89 60 -212 69 -424 32 -758 321 -840 728 -24 114 -16 335 14 436 25
83 91 222 127 265 34 39 76 41 101 4 16 -25 16 -28 -2 -58 -70 -117 -106 -199
-125 -279 -7 -32 -5 -39 8 -44 131 -43 230 -146 267 -278 33 -112 5 -251 -70
-349 -32 -42 -27 -54 42 -112 151 -128 297 -186 512 -203 132 -11 199 -37 265
-106 62 -63 89 -137 90 -240 0 -65 -5 -91 -26 -136 -35 -76 -88 -133 -156
-166 l-57 -28 -620 -5 c-611 -5 -621 -5 -660 -27 -84 -45 -125 -114 -125 -210
0 -100 60 -185 149 -212 22 -6 108 -11 199 -11 l161 0 28 58 c34 73 112 150
188 188 55 27 69 29 170 29 99 0 116 -3 168 -27 74 -35 160 -121 194 -194 l26
-57 87 6 c107 7 245 50 345 109 42 25 106 77 160 132 73 73 100 109 138 183
56 109 84 210 89 319 l3 78 -53 8 c-120 18 -235 106 -294 225 -31 64 -33 74
-33 173 0 93 3 112 26 161 l27 56 -52 31 c-120 73 -229 106 -396 121 -58 5
-126 17 -152 26 -65 23 -141 93 -175 163 -25 50 -28 68 -28 152 0 82 4 103 26
151 32 68 83 120 152 156 51 27 57 28 267 33 154 4 222 9 240 19 60 33 100 88
100 138 0 16 7 39 16 51 14 21 23 22 128 22 101 0 117 2 147 23 21 14 39 38
48 63 12 35 12 44 -3 76 -34 70 -30 70 -506 66 -366 -4 -433 -6 -485 -21 -72
-21 -173 -67 -237 -108 -54 -35 -73 -35 -101 3 -19 25 -19 28 -4 52 33 49 210
138 335 167 26 6 81 14 122 19 116 11 768 11 820 -1z m-472 -235 c14 -10 22
-26 22 -44 0 -43 -32 -60 -110 -60 -78 0 -110 17 -110 60 0 43 32 60 110 60
43 0 73 -5 88 -16z"/>
<path d="M1590 3101 c0 -80 23 -187 60 -275 42 -99 57 -121 77 -104 50 41 69
179 37 270 -19 57 -74 123 -125 148 -21 11 -41 20 -44 20 -3 0 -5 -27 -5 -59z"/>
<path d="M2931 2523 c-22 -48 -25 -125 -7 -187 28 -94 115 -174 213 -197 24
-5 33 -3 33 6 0 29 -44 154 -77 216 -34 67 -119 180 -139 186 -6 2 -16 -9 -23
-24z"/>
<path d="M3590 1643 c0 -16 55 -84 86 -108 50 -38 100 -56 158 -58 56 -1 131
17 160 38 18 13 18 16 2 40 -25 38 -85 73 -145 85 -61 11 -261 14 -261 3z"/>
<path d="M1893 1346 c-62 -20 -111 -54 -144 -99 -16 -22 -29 -44 -29 -49 0 -4
115 -8 255 -8 149 0 255 4 255 9 0 5 -15 29 -33 53 -62 83 -204 127 -304 94z"/>
</g>
</svg>
